<svg xmlns="http://www.w3.org/2000/svg" viewBox="0 0 16 16" id="Campfire"><path d="M7.871.006a.5.5 0 0 0-.48.637c.145.51.17.87.222 1.263-.146-.247-.242-.525-.465-.724a.5.5 0 0 0-.816.244c-.331 1.253-1.171 2.156-2.008 3.142-.836.987-1.674 2.096-1.674 3.676 0 2.8 2.518 4.905 5.248 4.742.033 0 .064.006.096.004.088-.005.169-.03.254-.043.115-.015.23-.033.342-.056.033-.009.067-.015.1-.024 2.34-.529 4.026-2.715 3.874-5.209-.26-4.292-4.378-7.54-4.378-7.54A.5.5 0 0 0 7.87.005zm.746 2.012c1.108 1.115 2.788 3.046 2.95 5.7a4.048 4.048 0 0 1-.442 2.08c.01-.142.026-.283.018-.429-.115-1.899-1.35-3.412-2.174-4.285a.5.5 0 0 0-.358-.156.5.5 0 0 0-.506.535c.014.187-.033.248-.04.385-.11-.28-.216-.56-.45-.77a.5.5 0 0 0-.818.244c-.199.757-.71 1.313-1.25 1.953-.54.64-1.115 1.405-1.115 2.483 0 .294.051.572.127.84-.556-.64-.909-1.447-.909-2.354 0-1.233.626-2.071 1.438-3.03.634-.747 1.304-1.618 1.793-2.663.037.08.114.128.144.224.115.366.178.872.221 1.582a.5.5 0 0 0 .932.217c.458-.8.52-1.65.44-2.556zM7.145 6.574c.077.27.203.386.232.873a.5.5 0 0 0 .855.32c.27-.272.508-.654.678-1.122.597.782 1.17 1.712 1.235 2.785a2.401 2.401 0 0 1-1.665 2.453 3.906 3.906 0 0 1-.628.105c-.136.009-.267-.01-.4-.015-1.102-.156-2.02-1.069-2.02-2.215 0-.733.363-1.226.879-1.838.296-.351.542-.89.834-1.346zm-5.668 5.428v.002a.5.5 0 0 0-.088.986L5.514 14l-4.125 1.012a.5.5 0 1 0 .236.97l5.986-1.466 5.987 1.466a.5.5 0 1 0 .238-.97L9.71 14l4.125-1.01a.5.5 0 0 0-.106-.988.5.5 0 0 0-.132.018L7.61 13.486 1.625 12.02a.5.5 0 0 0-.148-.018z" color="#000" font-family="sans-serif" font-weight="400" overflow="visible" style="line-height:normal;text-indent:0;text-align:start;text-decoration-line:none;text-decoration-style:solid;text-decoration-color:#000;text-transform:none;block-progression:tb;white-space:normal;isolation:auto;mix-blend-mode:normal;solid-color:#000;solid-opacity:1" fill="#34a853" class="color000000 svgShape"></path></svg>