<svg xmlns="http://www.w3.org/2000/svg" viewBox="0 0 32 32" id="Compass"><g data-name="Layer 7" fill="#34a853" class="color000000 svgShape"><path d="M18.68 6.31A3 3 0 0 0 19 5a3 3 0 0 0-6 0 3 3 0 0 0 .32 1.31 12 12 0 1 0 5.37 0ZM15 5a1 1 0 1 1 1 1 1 1 0 0 1-1-1Zm1 23a10 10 0 1 1 10-10 10 10 0 0 1-10 10Z" fill="#34a853" class="color000000 svgShape"></path><path d="M16 11a1 1 0 0 0 0-2 1 1 0 0 0 0 2zm8 6a1 1 0 1 0 1 1 1 1 0 0 0-1-1zm-8 8a1 1 0 1 0 1 1 1 1 0 0 0-1-1zm-8-8a1 1 0 1 0 1 1 1 1 0 0 0-1-1zm11.14-3.45-4.95 2.12a1 1 0 0 0-.53.53l-2.12 4.95a1 1 0 0 0 1.31 1.31l4.95-2.12a1 1 0 0 0 .53-.53l2.12-4.95a1 1 0 0 0-1.31-1.31zm-2.49 5.11-2.28 1 1-2.28 2.28-1z" fill="#34a853" class="color000000 svgShape"></path></g></svg>