<svg xmlns="http://www.w3.org/2000/svg" fill="none" viewBox="0 0 39 39" id="Instagram"><path stroke="#34a853" stroke-linecap="round" stroke-linejoin="round" stroke-width="1.5" d="M22.3818 12.5H16.3818C14.1727 12.5 12.3818 14.2909 12.3818 16.5V22.5C12.3818 24.7091 14.1727 26.5 16.3818 26.5H22.3818C24.591 26.5 26.3818 24.7091 26.3818 22.5V16.5C26.3818 14.2909 24.591 12.5 22.3818 12.5Z" clip-rule="evenodd" class="colorStroke000000 svgStroke"></path><path stroke="#34a853" stroke-linecap="round" stroke-linejoin="round" stroke-width="1.5" d="M19.3818 22.5C17.725 22.5 16.3818 21.1569 16.3818 19.5C16.3818 17.8431 17.725 16.5 19.3818 16.5C21.0387 16.5 22.3818 17.8431 22.3818 19.5C22.3818 20.2956 22.0658 21.0587 21.5032 21.6213C20.9405 22.1839 20.1775 22.5 19.3818 22.5Z" clip-rule="evenodd" class="colorStroke000000 svgStroke"></path><rect width="1" height="1" x="22.882" y="16" stroke="#34a853" stroke-linecap="round" stroke-linejoin="round" stroke-width="1.5" transform="rotate(-90 22.882 16)" class="colorStroke000000 svgStroke"></rect><circle cx="19.382" cy="19.5" r="18.121" stroke="#34a853" stroke-linecap="round" stroke-linejoin="round" stroke-width="1.5" class="colorStroke000000 svgStroke"></circle></svg>