<svg xmlns="http://www.w3.org/2000/svg" fill="none" viewBox="0 0 39 39" id="Youtube"><path stroke="#34a853" stroke-linecap="round" stroke-linejoin="round" stroke-width="1.5" d="M25.5323 26.5C27.8366 26.5839 29.7743 24.7872 29.8643 22.483V16.517C29.7743 14.2129 27.8366 12.4161 25.5323 12.5H14.1963C11.8919 12.4161 9.95424 14.2129 9.86426 16.517V22.483C9.95424 24.7872 11.8919 26.5839 14.1963 26.5H25.5323Z" clip-rule="evenodd" class="colorStroke000000 svgStroke"></path><path stroke="#34a853" stroke-linecap="round" stroke-linejoin="round" stroke-width="1.5" d="M19.3723 16.675L22.5333 18.823C22.738 18.9426 22.8639 19.1619 22.8639 19.399C22.8639 19.6362 22.738 19.8555 22.5333 19.975L19.3723 22.325C18.7723 22.732 17.8643 22.385 17.8643 21.749V17.249C17.8643 16.616 18.7733 16.268 19.3723 16.675Z" clip-rule="evenodd" class="colorStroke000000 svgStroke"></path><circle cx="19.864" cy="19.5" r="18.121" stroke="#34a853" stroke-linecap="round" stroke-linejoin="round" stroke-width="1.5" class="colorStroke000000 svgStroke"></circle></svg>